<svg version="1" xmlns="http://www.w3.org/2000/svg" width="266.667" height="266.667" viewBox="0 0 200.000000 200.000000"><path d="M83.8 30.3c-6 1.7-13.4 7.8-15.8 13.1-7.4 16-9.7 25.8-8 34.4 1 5.4 3.5 11.8 5 12.7.5.3 1 1.5 1 2.6 0 2.1 2.5 6.9 8.2 15.9 1.9 3 5.1 8.5 7 12.1 3.4 6.5 5.2 9.3 9.4 14.7 1.1 1.5 2.8 4.7 3.7 7.2 2.1 6 4.6 19.6 4 22.1-.4 1.3 0 1.9 1.1 1.9.9 0 1.8-.6 2-1.3 1.9-7 2.7-10.8 3.2-14.1.5-3.9 3.5-10.7 5.9-13.6.7-.8 1.5-3.4 1.8-5.8.3-2.5 4.2-11.7 9.5-22.5 5-10 9.5-19.8 10-21.7 1.4-4.8.7-21.5-1.1-27-2.1-6.2-7.1-18.1-8.8-20.8-.8-1.2-4.5-4.1-8.4-6.4-6.7-4-7.4-4.2-16-4.5-5.3-.2-10.9.3-13.7 1zm16.3 24.4c2 1 4.4 3.1 5.2 4.8 7.4 14.4 8.4 19.9 4.2 24-1.3 1.4-3.6 2.5-5.2 2.6-4.4 0-18.5 0-21.4-.1-1.8-.1-3-1-4.1-3.3-1.8-3.5-2.2-9.3-.8-10.2.5-.3.7-2.7.4-5.3-.5-4.1-.2-5.1 2.3-8 2.8-3.3 8.7-6.1 13.2-6.2 1.4 0 4.1.8 6.2 1.7z"/></svg>